<svg xmlns="http://www.w3.org/2000/svg" width="180" height="180" viewBox="0 0 180 180">
  <rect width="180" height="180" rx="24" fill="#ffffff"/>
  <rect x="18" y="18" width="44" height="44" rx="8" fill="#172033"/>
  <rect x="30" y="30" width="20" height="20" rx="4" fill="#ffffff"/>
  <rect x="118" y="18" width="44" height="44" rx="8" fill="#172033"/>
  <rect x="130" y="30" width="20" height="20" rx="4" fill="#ffffff"/>
  <rect x="18" y="118" width="44" height="44" rx="8" fill="#172033"/>
  <rect x="30" y="130" width="20" height="20" rx="4" fill="#ffffff"/>
  <rect x="82" y="24" width="14" height="14" fill="#28b67a"/>
  <rect x="82" y="52" width="14" height="28" fill="#172033"/>
  <rect x="102" y="82" width="18" height="18" fill="#172033"/>
  <rect x="130" y="82" width="14" height="42" fill="#28b67a"/>
  <rect x="78" y="112" width="28" height="14" fill="#172033"/>
  <rect x="112" y="132" width="16" height="30" fill="#172033"/>
  <rect x="144" y="140" width="18" height="18" fill="#28b67a"/>
  <rect x="82" y="146" width="14" height="14" fill="#28b67a"/>
</svg>
